<?xml version="1.0" encoding="UTF-8" standalone="no"?>
<!-- Created with Inkscape (http://www.inkscape.org/) -->

<svg
   xmlns:dc="http://purl.org/dc/elements/1.1/"
   xmlns:cc="http://creativecommons.org/ns#"
   xmlns:rdf="http://www.w3.org/1999/02/22-rdf-syntax-ns#"
   xmlns:svg="http://www.w3.org/2000/svg"
   xmlns="http://www.w3.org/2000/svg"
   xmlns:sodipodi="http://sodipodi.sourceforge.net/DTD/sodipodi-0.dtd"
   xmlns:inkscape="http://www.inkscape.org/namespaces/inkscape"
   width="210mm"
   height="297mm"
   viewBox="0 0 744.09448819 1052.3622047"
   id="svg2"
   version="1.1"
   inkscape:version="0.91 r13725"
   sodipodi:docname="icon-folder-new.svg">
  <defs
     id="defs4" />
  <sodipodi:namedview
     id="base"
     pagecolor="#ffffff"
     bordercolor="#666666"
     borderopacity="1.0"
     inkscape:pageopacity="0.0"
     inkscape:pageshadow="2"
     inkscape:zoom="8"
     inkscape:cx="322.21253"
     inkscape:cy="505.74652"
     inkscape:document-units="px"
     inkscape:current-layer="g4355"
     showgrid="false"
     inkscape:window-width="1920"
     inkscape:window-height="1018"
     inkscape:window-x="-8"
     inkscape:window-y="-8"
     inkscape:window-maximized="1" />
  <metadata
     id="metadata7">
    <rdf:RDF>
      <cc:Work
         rdf:about="">
        <dc:format>image/svg+xml</dc:format>
        <dc:type
           rdf:resource="http://purl.org/dc/dcmitype/StillImage" />
        <dc:title></dc:title>
      </cc:Work>
    </rdf:RDF>
  </metadata>
  <g
     inkscape:groupmode="layer"
     id="layer2"
     inkscape:label="bg"
     style="display:inline"
     sodipodi:insensitive="true">
    <rect
       style="opacity:0.98999999;fill:#333333;fill-opacity:1;stroke:none;stroke-width:1.39999998;stroke-miterlimit:4;stroke-dasharray:none;stroke-opacity:1"
       id="rect4318"
       width="191.4109"
       height="138.75"
       x="225.04456"
       y="486.23721" />
  </g>
  <g
     inkscape:label="icon old"
     inkscape:groupmode="layer"
     id="layer1"
     style="display:inline">
    <rect
       style="opacity:0.98999999;fill:none;fill-opacity:1;stroke:none;stroke-width:1.39999998;stroke-miterlimit:4;stroke-dasharray:none;stroke-opacity:1"
       id="rect4336"
       width="49.857864"
       height="49.857864"
       x="362.43414"
       y="489.08673"
       inkscape:export-filename="E:\Git\VisSceneEditor\UI\assets-raw\x2\icon-folder-new.png"
       inkscape:export-xdpi="79.425812"
       inkscape:export-ydpi="79.425812" />
    <path
       style="fill:#ffffff;fill-opacity:1;stroke-width:0.2;stroke-linejoin:round"
       d="m 386.99904,498.96297 c 0,0 -1.5,1 -2.5,4 l 15,0 0,-2.75 c 0,-0.5523 -0.6977,-1.25 -1.25,-1.25 z m -18.5,6 0,20 25.70488,0 1.09605,-1.18657 -0.0169,-0.003 -5.91202,0.97299 0.0251,-6.42207 6.00871,1.46318 0,-0.0957 -4.36083,-4.91088 5.84084,-3.19983 1.93872,5.96542 0.0957,0 2.21082,-6.08506 2.39136,1.47265 -0.0221,-7.97127 z"
       id="path4138"
       inkscape:connector-curvature="0"
       sodipodi:nodetypes="cccsscccccccccccccccccc"
       inkscape:export-filename="E:\Git\VisSceneEditor\UI\assets-raw\x2\icon-folder-new.png"
       inkscape:export-xdpi="79"
       inkscape:export-ydpi="79" />
    <path
       id="path4160"
       d="m 401.49212,512.82461 -2.57251,6.8425 -0.0887,0 -2.43944,-6.8425 -3.94752,2.29553 4.6572,5.60646 0,0.0883 -6.91922,-1.41261 0,4.45863 6.96357,-1.23605 0.0443,0.0883 -4.74588,5.51812 3.81446,2.25139 2.52819,-6.79833 0.0887,0 2.57252,6.79833 3.90314,-2.25139 -4.79021,-5.47399 0,-0.0883 7.1402,1.19192 0,-4.45863 -7.09587,1.41261 0,-0.0883 4.74588,-5.6506 -3.85879,-2.25139 z"
       inkscape:connector-curvature="0"
       style="fill:#ffffff;fill-opacity:1;stroke-width:0.2;stroke-linejoin:round"
       inkscape:export-filename="E:\Git\VisSceneEditor\UI\assets-raw\x2\icon-folder-new.png"
       inkscape:export-xdpi="79"
       inkscape:export-ydpi="79" />
  </g>
  <g
     id="g4355"
     inkscape:groupmode="layer"
     inkscape:label="icon"
     style="display:inline">
    <rect
       inkscape:export-ydpi="39.712906"
       inkscape:export-xdpi="39.712906"
       inkscape:export-filename="E:\Git\VisSceneEditor\UI\assets-raw\x1\icon-folder-new.png"
       y="531.08673"
       x="301.18414"
       height="49.857864"
       width="49.857864"
       id="rect4357"
       style="opacity:0.98999999;fill:none;fill-opacity:1;stroke:none;stroke-width:1.39999998;stroke-miterlimit:4;stroke-dasharray:none;stroke-opacity:1" />
    <path
       inkscape:export-ydpi="39.712906"
       inkscape:export-xdpi="39.712906"
       inkscape:export-filename="E:\Git\VisSceneEditor\UI\assets-raw\x1\icon-folder-new.png"
       sodipodi:nodetypes="cccssccccccccccccc"
       inkscape:connector-curvature="0"
       id="path4359"
       d="m 325.74904,540.96297 c 0,0 -1.5,1 -2.5,4 l 15,0 0,-2.75 c 0,-0.5523 -0.6977,-1.25 -1.25,-1.25 z m -18.5,6 0,20 20.62285,-0.002 0.0243,-6.91791 5.30559,1.19658 -3.90882,-4.49488 6.36404,-3.47304 1.98658,5.54558 2.14818,-5.62103 2.47975,1.45056 -0.0221,-7.68401 z"
       style="fill:#ffffff;fill-opacity:1;stroke-width:0.2;stroke-linejoin:round" />
    <path
       inkscape:export-ydpi="39.712906"
       inkscape:export-xdpi="39.712906"
       inkscape:export-filename="E:\Git\VisSceneEditor\UI\assets-raw\x1\icon-folder-new.png"
       style="fill:#ffffff;fill-opacity:1;stroke-width:0.2;stroke-linejoin:round"
       inkscape:connector-curvature="0"
       d="m 340.24212,554.82461 -2.57251,6.8425 -0.0887,0 -2.43944,-6.8425 -3.94752,2.29553 4.6572,5.60646 0,0.0883 -6.91922,-1.41261 0,4.45863 6.96357,-1.23605 0.0443,0.0883 -4.74588,5.51812 3.81446,2.25139 2.52819,-6.79833 0.0887,0 2.57252,6.79833 3.90314,-2.25139 -4.79021,-5.47399 0,-0.0883 7.1402,1.19192 0,-4.45863 -7.09587,1.41261 0,-0.0883 4.74588,-5.6506 -3.85879,-2.25139 z"
       id="path4361" />
  </g>
</svg>
